<svg xmlns="http://www.w3.org/2000/svg" width="16" height="16" fill="none" viewBox="0 0 16 16">
  <path stroke="#B3B3B3" stroke-linecap="round" stroke-linejoin="round" stroke-width="1.2" d="m5.511 10.578 7.822-9.69m-10.666 0 7.822 9.69m-9.6 1.867c0 .355.089.71.178.977.177.356.355.622.622.89.267.266.533.444.889.621.355.178.71.178.978.178.355 0 .71-.089.977-.178.356-.177.623-.355.89-.622a3.19 3.19 0 0 0 .621-.889c.178-.355.178-.71.178-.978 0-.355-.089-.71-.178-.977a3.192 3.192 0 0 0-.622-.89 3.193 3.193 0 0 0-.889-.621c-.355-.178-.71-.178-.977-.178-.356 0-.712.089-.978.178a3.193 3.193 0 0 0-.89.622 3.192 3.192 0 0 0-.621.889 3.195 3.195 0 0 0-.178.977Zm8.889 0c0 .71.266 1.422.8 1.866.533.534 1.155.8 1.866.8.712 0 1.423-.267 1.867-.8.533-.533.8-1.155.8-1.867 0-.71-.267-1.422-.8-1.866-.533-.534-1.155-.8-1.867-.8-.71 0-1.422.266-1.866.8-.534.444-.8 1.155-.8 1.867Z"/>
</svg>
