<svg xmlns="http://www.w3.org/2000/svg" width="16" height="16" fill="none" viewBox="0 0 16 16">
  <path stroke="#B3B3B3" stroke-linecap="round" stroke-linejoin="round" stroke-width="1.2" d="M11.518 3.561H4.842a1.25 1.25 0 0 0-1.26 1.261v9.049c0 .742.593 1.26 1.26 1.26h9.05a1.25 1.25 0 0 0 1.26-1.26V7.195l-3.634-3.634Z"/>
  <path stroke="#B3B3B3" stroke-linecap="round" stroke-linejoin="round" stroke-width="1.2" d="M11.444 3.561V6.38H6.918V3.56m-.741 11.35v-3.19c0-.668.594-1.261 1.261-1.261h3.783c.668 0 1.26.593 1.26 1.261v3.19M1.114 10.57V2.92c0-.983.797-1.78 1.78-1.78H8.73"/>
</svg>
